<?xml version="1.0" encoding="UTF-8"?>
<svg version="1.1" xmlns="http://www.w3.org/2000/svg" width="219" height="219">
<path d="M0 0 C1.57033714 1.38701053 3.13425523 2.78137496 4.6875 4.1875 C5.71875 4.97125 6.75 5.755 7.8125 6.5625 C12.30839981 10.667452 15.96622562 15.38248607 19.6875 20.1875 C20.60402344 21.363125 20.60402344 21.363125 21.5390625 22.5625 C30.60981282 34.82250957 36.09940126 48.46286377 39.6875 63.1875 C40.05681641 64.62029297 40.05681641 64.62029297 40.43359375 66.08203125 C46.47378588 94.53341899 39.07717801 124.01089018 23.95996094 148.27832031 C20.36753595 153.66833632 16.07004757 158.43644994 11.6875 163.1875 C11.05585938 163.91195312 10.42421875 164.63640625 9.7734375 165.3828125 C-6.52513629 183.11738398 -32.74059694 194.80586198 -56.60229492 196.40844727 C-84.44222219 197.33362935 -109.63689302 193.37109519 -132.3125 176.1875 C-133.16972656 175.55070313 -134.02695313 174.91390625 -134.91015625 174.2578125 C-157.3253442 157.00470029 -172.42429984 131.85297964 -176.80859375 103.82421875 C-178.67178599 89.08626953 -178.41976663 73.50070188 -174.3125 59.1875 C-174.11914062 58.49140625 -173.92578125 57.7953125 -173.7265625 57.078125 C-169.24483963 41.25377016 -162.12777672 27.62738911 -151.3125 15.1875 C-150.83554688 14.5790625 -150.35859375 13.970625 -149.8671875 13.34375 C-145.4330848 7.76944947 -139.92228635 3.52656126 -134.3125 -0.8125 C-133.56484375 -1.410625 -132.8171875 -2.00875 -132.046875 -2.625 C-94.32835402 -31.11171515 -36.58467284 -29.81526399 0 0 Z M-145.82617188 12.73974609 C-165.66353017 34.11166763 -176.26978833 61.61818825 -175.5625 90.7578125 C-174.20357752 121.37433589 -160.22533511 148.18985909 -137.9375 168.74267578 C-134.29543331 171.98091957 -130.4694132 174.65939243 -126.3125 177.1875 C-125.32636719 177.82945312 -124.34023437 178.47140625 -123.32421875 179.1328125 C-100.04009074 193.52464721 -70.99477784 198.20269283 -44.26953125 192.28515625 C-16.55905969 184.91961583 9.06687903 168.45631704 23.76904297 143.33984375 C38.86659741 117.05680558 43.6580355 88.4945728 36.1015625 58.89208984 C31.75982354 43.20353773 24.41483683 29.44731352 13.6875 17.1875 C13.09839844 16.4553125 12.50929687 15.723125 11.90234375 14.96875 C-5.22940097 -5.69118843 -31.31527098 -17.34877629 -57.59375 -20.34375 C-90.63097422 -23.39257677 -122.75101126 -10.92345894 -145.82617188 12.73974609 Z " fill="#DB7F6D" transform="translate(177.3125,22.8125)"/>
<path d="M0 0 C1.98 0 3.96 0 6 0 C12.42341938 11.70419528 18.81005816 23.42225872 24.96435547 35.27075195 C26.65197672 38.8632203 26.65197672 38.8632203 29 42 C29.62044189 40.79670044 29.62044189 40.79670044 30.25341797 39.5690918 C31.79139172 36.58837686 33.33094881 33.60849102 34.87158203 30.62915039 C35.53758204 29.34041607 36.20295243 28.05135617 36.86767578 26.76196289 C37.82418441 24.90685087 38.78296393 23.0529281 39.7421875 21.19921875 C40.3182373 20.08377686 40.89428711 18.96833496 41.48779297 17.8190918 C43 15 43 15 45 12 C45.45915507 9.03157342 45.45915507 9.03157342 45.625 5.8125 C45.69976562 4.72582031 45.77453125 3.63914063 45.8515625 2.51953125 C45.90054688 1.68808594 45.94953125 0.85664062 46 0 C47.98 0 49.96 0 52 0 C52.09276503 13.42169072 52.16379835 26.8433049 52.20724869 40.26525116 C52.22810486 46.49791301 52.25638718 52.73035519 52.30175781 58.96289062 C52.34528484 64.97996677 52.36915193 70.99683188 52.37950897 77.01405334 C52.38688795 79.30733054 52.40129737 81.60059645 52.42292023 83.89378357 C52.45204452 87.11108169 52.45595212 90.3275127 52.45410156 93.54492188 C52.47567322 94.96049377 52.47567322 94.96049377 52.49768066 96.40466309 C52.4615536 102.22628115 51.71256756 107.31272069 48 112 C44.64739254 114.05652221 42.16693144 114.21826027 38.25 114.125 C37.26515625 114.10695313 36.2803125 114.08890625 35.265625 114.0703125 C34.51796875 114.04710937 33.7703125 114.02390625 33 114 C33 112.35 33 110.7 33 109 C34.04800781 108.81824219 34.04800781 108.81824219 35.1171875 108.6328125 C36.02726562 108.46523437 36.93734375 108.29765625 37.875 108.125 C38.77992187 107.96257812 39.68484375 107.80015625 40.6171875 107.6328125 C43.16505988 107.16955297 43.16505988 107.16955297 45 105 C45.29166082 102.93919856 45.29166082 102.93919856 45.22705078 100.55029297 C45.22682419 99.16908768 45.22682419 99.16908768 45.22659302 97.75997925 C45.21627045 96.76410797 45.20594788 95.76823669 45.1953125 94.7421875 C45.19106766 93.21490524 45.19106766 93.21490524 45.18673706 91.6567688 C45.1755177 88.396061 45.15040996 85.13562516 45.125 81.875 C45.11497247 79.66797271 45.10584623 77.46094112 45.09765625 75.25390625 C45.07557263 69.83583228 45.04103082 64.41796229 45 59 C43.35 61.97 41.7 64.94 40 68 C38.35 68 36.7 68 35 68 C28.24346364 56.4200474 22.08956632 44.53965631 15.97265625 32.61425781 C15.28519043 31.27407101 14.59769076 29.93390157 13.91015625 28.59375 C13.5749295 27.94017517 13.23970276 27.28660034 12.89431763 26.61322021 C9.57807176 20.15845168 6.18768831 13.74306894 2.74243164 7.35620117 C0 2.21586448 0 2.21586448 0 0 Z M45 24 C44.64695801 24.68626465 44.29391602 25.3725293 43.93017578 26.07958984 C42.33237082 29.18009858 40.7287642 32.27756984 39.125 35.375 C38.29162109 36.99535156 38.29162109 36.99535156 37.44140625 38.6484375 C36.63896484 40.1953125 36.63896484 40.1953125 35.8203125 41.7734375 C35.08192139 43.20308838 35.08192139 43.20308838 34.32861328 44.66162109 C33 47 33 47 31 49 C31.99 50.32 32.98 51.64 34 53 C34.39832031 52.02289063 34.79664063 51.04578125 35.20703125 50.0390625 C37.41575031 44.87889228 40.19313607 40.02546875 42.94726562 35.140625 C45.82555982 29.90654353 45.82555982 29.90654353 46 24 C45.67 24 45.34 24 45 24 Z M45 41 C43.82845707 43.28929053 42.66261926 45.58118362 41.5 47.875 C41.16613281 48.52597656 40.83226562 49.17695312 40.48828125 49.84765625 C38.63156283 53.2524471 38.63156283 53.2524471 38 57 C37.34 57 36.68 57 36 57 C36.33 57.99 36.66 58.98 37 60 C39.22283735 57.10964393 41.25703433 54.15601165 43.1875 51.0625 C43.98220703 49.81146484 43.98220703 49.81146484 44.79296875 48.53515625 C46.10576334 45.77786276 46.24257572 44.01332956 46 41 C45.67 41 45.34 41 45 41 Z M34 53 C35 55 35 55 35 55 Z M35 55 C36 57 36 57 36 57 Z " fill="#E28372" transform="translate(63,57)"/>
<path d="M0 0 C1.04542969 0.52335937 2.09085938 1.04671875 3.16796875 1.5859375 C27.80699221 14.93071903 43.16614255 38.13483786 51.0390625 64.4765625 C57.49123393 91.18975824 52.26990275 119.55874595 38.0625 142.8203125 C30.15241945 155.01502001 20.20386345 165.12129947 8 173 C7.37996094 173.43828125 6.75992188 173.8765625 6.12109375 174.328125 C-13.89183279 187.98705542 -41.45041257 191.50128473 -64.88671875 187.4140625 C-89.95029279 182.5032698 -112.47481105 168.99145401 -127.6875 148.25 C-139.6791202 130.04689308 -146.42628544 111.22359471 -146.3125 89.25 C-146.30686035 88.10547363 -146.3012207 86.96094727 -146.29541016 85.78173828 C-145.95192806 61.78220225 -137.41912631 41.27214552 -122 23 C-121.55527344 22.40960938 -121.11054687 21.81921875 -120.65234375 21.2109375 C-113.19804186 11.59101273 -101.86351396 4.14508092 -91 -1 C-89.96875 -1.51175781 -88.9375 -2.02351563 -87.875 -2.55078125 C-59.68389102 -15.70010639 -27.45115367 -13.97155491 0 0 Z M-113 17 C-113.69222656 17.61101563 -114.38445312 18.22203125 -115.09765625 18.8515625 C-128.91021476 31.7579293 -137.32744175 48.8967718 -142 67 C-142.33837891 68.22783203 -142.33837891 68.22783203 -142.68359375 69.48046875 C-147.96730429 92.40084069 -142.99329988 118.44740583 -130.87695312 138.41381836 C-116.99060405 160.26917496 -97.98249303 175.5475953 -73 183 C-71.97261719 183.3196875 -70.94523437 183.639375 -69.88671875 183.96875 C-46.61817133 190.10550976 -21.04128845 186.24256529 0 175 C4.18631884 172.55507004 8.11377855 169.89572211 12 167 C12.94617188 166.30003906 13.89234375 165.60007813 14.8671875 164.87890625 C34.5024791 149.6221215 46.39646741 127.01214779 50.5546875 102.765625 C53.90384224 74.44470248 46.44718826 49.13887743 29 26.75 C11.82711779 5.98583063 -12.22822205 -6.3255237 -39 -9 C-66.48303069 -10.61118106 -92.62867058 -1.53155418 -113 17 Z " fill="#DC7F6D" transform="translate(156,21)"/>
<path d="M0 0 C1.98 0 3.96 0 6 0 C6.495 20.295 6.495 20.295 7 41 C8.35996094 38.26847656 9.71992188 35.53695312 11.12109375 32.72265625 C12.43449748 30.0880579 13.74858683 27.45380261 15.06274414 24.81958008 C15.97817665 22.98367538 16.89289202 21.14741292 17.80688477 19.31079102 C19.11808487 16.67630929 20.43182899 14.04311016 21.74609375 11.41015625 C22.15653427 10.58411392 22.56697479 9.75807159 22.98985291 8.90699768 C23.37017166 8.14628464 23.75049042 7.38557159 24.14233398 6.60180664 C24.47764633 5.92896133 24.81295868 5.25611603 25.15843201 4.56288147 C26 3 26 3 27 2 C28.99958364 1.95919217 31.00045254 1.95745644 33 2 C31.60692883 6.52082102 29.79473127 10.69116399 27.6640625 14.90234375 C27.34343842 15.5431337 27.02281433 16.18392365 26.69247437 16.84413147 C26.01693399 18.19220695 25.33946231 19.53931619 24.66015625 20.88549805 C23.63082526 22.92595252 22.60789293 24.96951511 21.5859375 27.01367188 C20.92485521 28.33091796 20.26340866 29.6479813 19.6015625 30.96484375 C19.14978134 31.86673683 19.14978134 31.86673683 18.68887329 32.78684998 C16.24897775 37.6136144 16.24897775 37.6136144 14.85076904 39.78347778 C13.00539927 42.67095559 11.99246855 44.5447535 12.04980469 48.01049805 C13.15275911 51.48061031 14.55773353 54.58182269 16.203125 57.83203125 C16.52279236 58.46807785 16.84245972 59.10412445 17.17181396 59.75944519 C18.19041762 61.78100097 19.22019808 63.79663012 20.25 65.8125 C20.92647666 67.15394641 21.60226405 68.49574065 22.27734375 69.83789062 C25.43702837 76.09700101 28.64214295 82.31245213 32.17871094 88.36987305 C33 90 33 90 33 92 C31.02 92 29.04 92 27 92 C25.53551287 89.42000991 24.07860598 86.83611691 22.625 84.25 C22.23183594 83.5590625 21.83867187 82.868125 21.43359375 82.15625 C16.27649085 72.95280483 11.68085733 63.45134994 7 54 C6.99191315 54.6064183 6.98382629 55.21283661 6.97549438 55.83763123 C6.88906229 62.18126471 6.78954432 68.52459951 6.68261719 74.86791992 C6.64446664 77.23147544 6.60959013 79.59508626 6.578125 81.95874023 C6.53217113 85.36722505 6.47422731 88.77533367 6.4140625 92.18359375 C6.39673569 93.75444984 6.39673569 93.75444984 6.37905884 95.35704041 C6.15452947 106.66117776 4.51148393 115.70377173 -3.890625 123.828125 C-11.68741977 130.15150973 -19.25739933 130.32236546 -29 130 C-29 128.02 -29 126.04 -29 124 C-28.154375 123.97421875 -27.30875 123.9484375 -26.4375 123.921875 C-16.530025 123.53356239 -16.530025 123.53356239 -8 119 C-3.8287489 113.9414433 -0.89648088 109.24259837 -0.84178162 102.57710266 C-0.8319928 101.67266418 -0.82220398 100.76822571 -0.81211853 99.83638 C-0.80636307 98.84663681 -0.8006076 97.85689362 -0.79467773 96.8371582 C-0.78477814 95.79308807 -0.77487854 94.74901794 -0.76467896 93.67330933 C-0.73304415 90.21582318 -0.7082986 86.75832329 -0.68359375 83.30078125 C-0.66302594 80.90609883 -0.64202952 78.51142005 -0.62062073 76.116745 C-0.56538222 69.80881703 -0.51598074 63.5008562 -0.46777344 57.19287109 C-0.41757144 50.75810821 -0.36187858 44.32339315 -0.30664062 37.88867188 C-0.19903727 25.25915569 -0.09741071 12.6295987 0 0 Z " fill="#E28371" transform="translate(125,57)"/>
<path d="M0 0 C1.98 0 3.96 0 6 0 C12.92366789 12.55021011 19.6882201 25.16879824 26.25341797 37.91040039 C30.04248496 45.23742393 33.9717817 52.46996206 38.10595703 59.60839844 C41 64.68238565 41 64.68238565 41 68 C39.02 68 37.04 68 35 68 C34.54262451 67.13536133 34.08524902 66.27072266 33.61401367 65.37988281 C31.85799393 62.06130978 30.09980084 58.74389179 28.34106445 55.42675781 C27.59115481 54.01169022 26.84177637 52.59634095 26.09301758 51.18066406 C19.85199139 39.38221293 13.43380277 27.69782322 7 16 C6.67 40.42 6.34 64.84 6 90 C4.02 90 2.04 90 0 90 C0 60.3 0 30.6 0 0 Z " fill="#E08371" transform="translate(45,57)"/>
<path d="M0 0 C1.98 0 3.96 0 6 0 C6.09284715 13.38714901 6.16383991 26.7742209 6.20724869 40.16162682 C6.22808702 46.37853782 6.25633652 52.59522786 6.30175781 58.81201172 C6.34534876 64.81612941 6.36916533 70.82003509 6.37950897 76.82429886 C6.38687652 79.11034098 6.4012635 81.39637204 6.42292023 83.68232346 C6.45212968 86.894424 6.4559486 90.10565824 6.45410156 93.31787109 C6.47567322 94.72265717 6.47567322 94.72265717 6.49768066 96.15582275 C6.44882414 104.05313041 4.6321582 110.91844894 -0.5625 117 C-6.73837101 122.06738134 -12.28733294 122.26144634 -20 122 C-21 121 -21 121 -21.0625 118.4375 C-21.0315625 117.2309375 -21.0315625 117.2309375 -21 116 C-20.20335938 115.98582031 -19.40671875 115.97164063 -18.5859375 115.95703125 C-11.52216969 115.80341835 -11.52216969 115.80341835 -5.375 112.75 C-0.52272245 107.13157336 -0.69709869 101.90878381 -0.68115234 94.79370117 C-0.67110672 93.76884613 -0.6610611 92.74399109 -0.65071106 91.68807983 C-0.6198627 88.30638175 -0.60283911 84.92476291 -0.5859375 81.54296875 C-0.56722721 79.19598203 -0.5476539 76.84900204 -0.5272522 74.50202942 C-0.47591047 68.32894867 -0.43629552 62.1558461 -0.39910889 55.98266602 C-0.35908215 49.6817484 -0.30798371 43.38092169 -0.2578125 37.08007812 C-0.16102897 24.72011592 -0.07663182 12.36010242 0 0 Z " fill="#E28372" transform="translate(117,57)"/>
<path d="M0 0 C0.886875 0.165 1.77375 0.33 2.6875 0.5 C1.00288041 6.53824491 -1.99483919 11.81782938 -4.9375 17.3125 C-6.50013732 20.23280533 -8.04333175 23.15325949 -9.52294922 26.11669922 C-10.8678406 28.65933289 -12.24878093 30.95181787 -13.82470703 33.34033203 C-18.35683821 40.62095489 -18.35683821 40.62095489 -18.91448975 48.93692017 C-16.83791042 55.33457877 -13.37385634 61.00679515 -9.9375 66.75 C-8.94829287 68.50567244 -7.96515863 70.26478111 -6.98828125 72.02734375 C-5.19656933 75.24876233 -3.3690329 78.44353972 -1.50244141 81.62207031 C0.16987288 84.50473839 1.57438727 87.34709065 2.6875 90.5 C0.3775 90.5 -1.9325 90.5 -4.3125 90.5 C-4.73023682 89.65928955 -5.14797363 88.8185791 -5.57836914 87.95239258 C-7.16276966 84.76631989 -8.74910706 81.58122593 -10.33666992 78.39672852 C-11.01710857 77.03089153 -11.69682275 75.66469333 -12.37573242 74.2980957 C-13.36436109 72.30839818 -14.35567499 70.32005914 -15.34765625 68.33203125 C-15.67375885 67.67534454 -15.99986145 67.01865784 -16.33584595 66.34207153 C-17.95252534 63.11095792 -19.61475355 59.92488574 -21.40576172 56.78662109 C-22.05432129 55.64402832 -22.70288086 54.50143555 -23.37109375 53.32421875 C-23.96075928 52.31834717 -24.5504248 51.31247559 -25.15795898 50.27612305 C-26.5398105 46.95342615 -26.48706359 45.86857161 -25.3125 42.5 C-24.15183434 39.90769269 -22.95389298 37.38586709 -21.671875 34.85546875 C-21.30781555 34.12685135 -20.9437561 33.39823395 -20.56866455 32.64753723 C-19.7981665 31.10887628 -19.02472404 29.5716867 -18.24853516 28.03588867 C-17.07349683 25.70927409 -15.909092 23.37757393 -14.74609375 21.04492188 C-13.9928187 19.54395389 -13.23893159 18.04329289 -12.484375 16.54296875 C-11.97000885 15.51286934 -11.97000885 15.51286934 -11.44525146 14.46195984 C-9.65148529 10.92520205 -7.76741091 7.44823795 -5.75878906 4.02856445 C-5.37080139 3.36444046 -4.98281372 2.70031647 -4.58306885 2.0160675 C-3.3125 0.5 -3.3125 0.5 0 0 Z " fill="#E08270" transform="translate(164.3125,58.5)"/>
<path d="M0 0 C2.31 0 4.62 0 7 0 C1.48229341 11.81569492 -4.21395964 23.52729056 -10.10058594 35.1640625 C-10.59333008 36.14117187 -11.08607422 37.11828125 -11.59375 38.125 C-12.03396484 38.99382812 -12.47417969 39.86265625 -12.92773438 40.7578125 C-14.09639086 43.08249899 -14.09639086 43.08249899 -15 46 C-13.8391774 49.01956653 -13.8391774 49.01956653 -12.0625 52.36328125 C-11.74474609 52.99171432 -11.42699219 53.6201474 -11.09960938 54.2676239 C-10.0756933 56.28746614 -9.03820991 58.29997372 -8 60.3125 C-7.33110772 61.62518085 -6.66312945 62.93832788 -5.99609375 64.25195312 C-4.66855331 66.86381345 -3.33606063 69.47305511 -2 72.08056641 C1.04405805 78.03158798 4.02115743 84.01613363 7 90 C4.69 90 2.38 90 0 90 C-2.81194697 84.5191767 -5.62362633 79.03821624 -8.43505859 73.55712891 C-9.39136533 71.6928334 -10.34774498 69.8285753 -11.30419922 67.96435547 C-12.67955421 65.2836272 -14.05464631 62.60276423 -15.4296875 59.921875 C-15.85684052 59.08944275 -16.28399353 58.2570105 -16.72409058 57.39935303 C-17.12435455 56.61884583 -17.52461853 55.83833862 -17.93701172 55.03417969 C-18.28786835 54.35023132 -18.63872498 53.66628296 -19.00021362 52.96160889 C-19.33014313 52.31427795 -19.66007263 51.66694702 -20 51 C-20.39317413 50.35992004 -20.78634827 49.71984009 -21.19143677 49.06036377 C-22.5280323 45.65447923 -21.44682491 43.06934344 -20.08250427 39.804245 C-19.71166214 39.06922256 -19.34082001 38.33420013 -18.95874023 37.5769043 C-18.53837997 36.73641037 -18.11801971 35.89591644 -17.68492126 35.029953 C-17.23073318 34.1370607 -16.7765451 33.2441684 -16.30859375 32.32421875 C-15.84389175 31.3990596 -15.37918976 30.47390045 -14.90040588 29.52070618 C-13.41839 26.57343467 -11.92807328 23.63045136 -10.4375 20.6875 C-9.42978803 18.68712619 -8.42262012 16.6864782 -7.41601562 14.68554688 C-4.95030922 9.78716836 -2.47777863 4.89228201 0 0 Z " fill="#E18271" transform="translate(169,59)"/>
<path d="M0 0 C1.98 0 3.96 0 6 0 C13.18001269 12.99060042 20.16554431 26.06918894 26.96582031 39.26269531 C30.74637979 46.59693828 34.56957075 53.90506246 38.51245117 61.15356445 C41 65.78325265 41 65.78325265 41 68 C39.02 68 37.04 68 35 68 C27.55128415 54.54935026 20.35100072 40.98557561 13.32177734 27.3125 C9.37804149 19.6436152 5.36870574 12.01851004 1.22265625 4.45703125 C0 2 0 2 0 0 Z " fill="#E18270" transform="translate(54,57)"/>
<path d="M0 0 C3.39721351 3.39721351 4.84509227 5.12526465 5.24050903 9.91070557 C5.23606781 11.03877625 5.23162659 12.16684692 5.22705078 13.32910156 C5.22689972 14.61012756 5.22674866 15.89115356 5.22659302 17.21099854 C5.21638051 18.60420894 5.20594853 19.99741776 5.1953125 21.390625 C5.19158064 22.81980186 5.18873448 24.24898128 5.18673706 25.67816162 C5.17911419 29.43305571 5.15947739 33.18779419 5.1373291 36.94262695 C5.11684159 40.77683406 5.10772914 44.61106639 5.09765625 48.4453125 C5.07623012 55.96361248 5.04211056 63.4817844 5 71 C3.35 71 1.7 71 0 71 C0 47.57 0 24.14 0 0 Z " fill="#E48473" transform="translate(53,77)"/>
<path d="M0 0 C3.10276124 3.10276124 4.79143596 4.96972258 5.24050903 9.34124756 C5.23606781 10.20284485 5.23162659 11.06444214 5.22705078 11.95214844 C5.22689972 12.93286316 5.22674866 13.91357788 5.22659302 14.92401123 C5.21627045 15.97518127 5.20594788 17.02635132 5.1953125 18.109375 C5.1924826 19.19132141 5.18965271 20.27326782 5.18673706 21.38800049 C5.17554609 24.84211304 5.1504432 28.29596588 5.125 31.75 C5.11496881 34.09244417 5.1058432 36.43489241 5.09765625 38.77734375 C5.0756103 44.51831771 5.04214334 50.2591403 5 56 C3.35 56 1.7 56 0 56 C0 37.52 0 19.04 0 0 Z " fill="#E38473" transform="translate(61,92)"/>
<path d="M0 0 C0.66 0.33 1.32 0.66 2 1 C-2.6873662 6.17226615 -8.31728181 9.98925493 -14 14 C-14 11 -14 11 -12.0625 8.6875 C-8.44378777 5.25704448 -4.1965999 2.66058948 0 0 Z " fill="#E28270" transform="translate(55,14)"/>
<path d="M0 0 C-0.33 0.66 -0.66 1.32 -1 2 C-3.28515625 2.6328125 -3.28515625 2.6328125 -6.0625 3.125 C-6.98160156 3.29257813 -7.90070313 3.46015625 -8.84765625 3.6328125 C-9.91306641 3.81457031 -9.91306641 3.81457031 -11 4 C-10.67 3.01 -10.34 2.02 -10 1 C-8.22265625 0.234375 -8.22265625 0.234375 -6.0625 -0.25 C-5.35222656 -0.42015625 -4.64195312 -0.5903125 -3.91015625 -0.765625 C-2 -1 -2 -1 0 0 Z " fill="#D57E69" transform="translate(134,205)"/>
<path d="M0 0 C0.66 0.33 1.32 0.66 2 1 C1.01 3.64 0.02 6.28 -1 9 C-1.99 9 -2.98 9 -4 9 C-2.25 2.25 -2.25 2.25 0 0 Z " fill="#E28172" transform="translate(10,65)"/>
</svg>
